<svg width="384" height="70" viewBox="0 0 384 70" fill="none" xmlns="http://www.w3.org/2000/svg">
<path d="M110.64 15.6267H145.656V54.6221H137.857V22.8687H118.439V54.6221H110.64V15.6267Z" fill="#1A1D20"/>
<path d="M97.6292 15.6267H105.269V54.6221H97.6292L97.5496 48.8126C94.1275 53.2692 88.9547 55.6567 83.5431 55.6567C71.7649 55.6567 63.7271 46.3456 63.7271 35.1244C63.7271 23.9033 71.7649 14.5922 83.5431 14.5922C88.9547 14.5922 94.048 16.8205 97.47 21.1975L97.6292 15.6267ZM84.5777 48.3351C91.8197 48.3351 97.6292 42.8439 97.6292 35.1244C97.6292 27.4845 91.8197 21.9137 84.5777 21.9137C77.4152 21.9137 71.6057 27.4845 71.6057 35.1244C71.6057 42.8439 77.4152 48.3351 84.5777 48.3351Z" fill="#1A1D20"/>
<path d="M63.351 15.6267V22.8687H51.9707V54.6221H44.1716V15.6267H63.351Z" fill="#1A1D20"/>
<path d="M21.6464 14.5922C33.4246 14.5922 41.542 23.9829 41.542 35.1244C41.542 46.3456 33.4246 55.6567 21.6464 55.6567C16.2348 55.6567 11.1415 53.2692 7.7195 48.8126L7.56033 54.6221H0V0H7.79908V21.1179C11.1415 16.8205 16.2348 14.5922 21.6464 14.5922ZM20.6118 48.3351C27.7743 48.3351 33.5838 42.8439 33.5838 35.1244C33.5838 27.4845 27.7743 21.9137 20.6118 21.9137C13.3698 21.9137 7.56033 27.4845 7.56033 35.1244C7.56033 42.8439 13.3698 48.3351 20.6118 48.3351Z" fill="#1A1D20"/>
<path d="M277.559 54.6221L242.543 54.6221L242.543 15.6267L250.342 15.6267L250.342 47.3801L269.76 47.3801L269.76 15.6267L277.559 15.6267L277.559 54.6221Z" fill="#1A1D20"/>
<path d="M288.823 10.5845C285.878 10.5845 283.491 8.19699 283.491 5.25244C283.491 2.30789 285.878 0 288.823 0C291.768 0 294.075 2.30789 294.075 5.25244C294.075 8.19699 291.768 10.5845 288.823 10.5845ZM284.923 54.6221V15.6267H292.723V54.6221H284.923Z" fill="#1A1D20"/>
<path d="M331.425 0H339.224V54.6221H331.584L331.504 48.8126C328.082 53.2692 322.909 55.6567 317.498 55.6567C305.719 55.6567 297.682 46.3456 297.682 35.1244C297.682 23.9829 305.719 14.5922 317.498 14.5922C322.909 14.5922 328.003 16.8205 331.425 21.1179V0ZM318.532 48.3351C325.774 48.3351 331.584 42.8439 331.584 35.1244C331.584 27.4845 325.774 21.9137 318.532 21.9137C311.37 21.9137 305.56 27.4845 305.56 35.1244C305.56 42.8439 311.37 48.3351 318.532 48.3351Z" fill="#1A1D20"/>
<path d="M383.998 33.5601V37.5325H351.327C352.462 45.3152 358.623 48.3148 364.379 48.3148C370.702 48.3148 374.513 45.4773 377.107 43.2885L382.052 48.8822C379.62 51.0711 373.702 55.7731 364.622 55.7731C352.138 55.7731 343.22 47.0987 343.22 34.7762C343.22 21.9672 352.948 13.9413 364.136 13.9413C375.648 13.9413 383.917 22.2104 383.998 33.5601ZM364.055 21.3187C357.488 21.3187 352.786 25.6153 351.489 31.3713H375.81C375.08 25.9396 370.621 21.3187 364.055 21.3187Z" fill="#1A1D20"/>
<path d="M183.12 0H190.919V54.6221H183.279L183.199 48.8126C179.777 53.2692 174.605 55.6567 169.193 55.6567C157.415 55.6567 149.377 46.3456 149.377 35.1244C149.377 23.9829 157.415 14.5922 169.193 14.5922C174.605 14.5922 179.698 16.8205 183.12 21.1179V0ZM170.228 48.3351C177.47 48.3351 183.279 42.8439 183.279 35.1244C183.279 27.4845 177.47 21.9137 170.228 21.9137C163.065 21.9137 157.256 27.4845 157.256 35.1244C157.256 42.8439 163.065 48.3351 170.228 48.3351Z" fill="#1A1D20"/>
<path d="M208 69.9917L236.152 69.9917L236.152 15.6267L228.512 15.6267L228.432 21.4362C225.01 16.9796 219.837 14.5921 214.426 14.5921C202.648 14.5921 194.61 23.9032 194.61 35.1244C194.61 46.2659 202.648 55.6566 214.426 55.6566C219.837 55.6566 224.931 53.4283 228.353 49.1309L228.353 62L208 62L208 69.9917ZM215.46 21.9137C222.702 21.9137 228.512 27.4049 228.512 35.1244C228.512 42.7643 222.702 48.3351 215.46 48.3351C208.298 48.3351 202.489 42.7643 202.489 35.1244C202.489 27.4049 208.298 21.9137 215.46 21.9137Z" fill="#1A1D20"/>
<path d="M200 70L0 70L-6.99381e-07 62L200 62L200 70Z" fill="#FFF012"/>
</svg>
