<svg width="308" height="121" viewBox="0 0 308 121" fill="none" xmlns="http://www.w3.org/2000/svg">
<g clip-path="url(#clip0_288_4)">
<rect width="308" height="121" fill="white"/>
<g filter="url(#filter0_f_288_4)">
<circle cx="204.185" cy="74.7387" r="13.2324" fill="#FFF012"/>
</g>
<g filter="url(#filter1_f_288_4)">
<circle cx="206.905" cy="88.9844" r="19.2265" fill="#FFF012"/>
</g>
<g filter="url(#filter2_f_288_4)">
<circle cx="193.894" cy="85.0305" r="13.2324" fill="#FDFDD6"/>
</g>
<g filter="url(#filter3_f_288_4)">
<circle cx="211.905" cy="75.8413" r="7.71887" fill="#8CFF9F" fill-opacity="0.85"/>
</g>
<g filter="url(#filter4_f_288_4)">
<circle cx="211.905" cy="93.4845" r="5.51348" fill="#FFA600"/>
</g>
<g filter="url(#filter5_f_288_4)">
<circle cx="197.292" cy="83.6437" r="9.61325" fill="#FFA600"/>
</g>
<g filter="url(#filter6_f_288_4)">
<circle cx="197.292" cy="83.6437" r="9.61325" fill="#FFA600"/>
</g>
<path d="M194.154 72.3762L188.146 94.6978H185.26L191.268 72.3762H194.154ZM198.797 91.894H195.192L201.755 73.2501H205.925L212.498 91.894H208.893L203.913 77.0736H203.767L198.797 91.894ZM198.915 84.5839H208.747V87.2967H198.915V84.5839ZM218.331 73.2501V91.894H214.953V73.2501H218.331Z" fill="#222331"/>
<path d="M67.3585 75.0797H81.6765V91.0249H78.4876V78.0409H70.5474V91.0249H67.3585V75.0797Z" fill="#222331"/>
<path d="M62.0385 75.0792H65.1624V91.0243H62.0385L62.0059 88.6489C60.6065 90.4711 58.4915 91.4474 56.2786 91.4474C51.4625 91.4474 48.1759 87.6401 48.1759 83.0517C48.1759 78.4634 51.4625 74.6561 56.2786 74.6561C58.4915 74.6561 60.5741 75.5673 61.9733 77.357L62.0385 75.0792ZM56.7016 88.4536C59.6629 88.4536 62.0385 86.2083 62.0385 83.0517C62.0385 79.9278 59.6629 77.6499 56.7016 77.6499C53.773 77.6499 51.3974 79.9278 51.3974 83.0517C51.3974 86.2083 53.773 88.4536 56.7016 88.4536Z" fill="#222331"/>
<path d="M48.0216 75.0797V78.0409H43.3683V91.0249H40.1792V75.0797H48.0216Z" fill="#222331"/>
<path d="M30.969 74.6562C35.7851 74.6562 39.1043 78.4961 39.1043 83.0518C39.1043 87.6402 35.7851 91.4475 30.969 91.4475C28.7562 91.4475 26.6735 90.4712 25.2743 88.649L25.2092 91.0244H22.1178V68.6895H25.3068V77.3246C26.6735 75.5674 28.7562 74.6562 30.969 74.6562ZM30.5459 88.4537C33.4746 88.4537 35.8501 86.2084 35.8501 83.0518C35.8501 79.9279 33.4746 77.65 30.5459 77.65C27.5847 77.65 25.2092 79.9279 25.2092 83.0518C25.2092 86.2084 27.5847 88.4537 30.5459 88.4537Z" fill="#222331"/>
<path d="M135.613 91.0246H121.295V75.0795H124.483V88.0634H132.424V75.0795H135.613V91.0246Z" fill="#222331"/>
<path d="M140.217 73.0175C139.013 73.0175 138.037 72.0413 138.037 70.8372C138.037 69.6332 139.013 68.6895 140.217 68.6895C141.421 68.6895 142.365 69.6332 142.365 70.8372C142.365 72.0413 141.421 73.0175 140.217 73.0175ZM138.622 91.0244V75.0793H141.812V91.0244H138.622Z" fill="#222331"/>
<path d="M157.636 68.6895H160.825V91.0244H157.701L157.669 88.649C156.269 90.4712 154.154 91.4475 151.941 91.4475C147.125 91.4475 143.839 87.6402 143.839 83.0518C143.839 78.4961 147.125 74.6562 151.941 74.6562C154.154 74.6562 156.237 75.5674 157.636 77.3246V68.6895ZM152.364 88.4537C155.326 88.4537 157.701 86.2084 157.701 83.0518C157.701 79.9279 155.326 77.65 152.364 77.65C149.436 77.65 147.06 79.9279 147.06 83.0518C147.06 86.2084 149.436 88.4537 152.364 88.4537Z" fill="#222331"/>
<path d="M179.135 82.4125V84.0367H165.776C166.24 87.2191 168.759 88.4456 171.113 88.4456C173.698 88.4456 175.256 87.2854 176.317 86.3903L178.339 88.6776C177.345 89.5727 174.925 91.4954 171.212 91.4954C166.107 91.4954 162.461 87.9484 162.461 82.9098C162.461 77.6721 166.438 74.3904 171.013 74.3904C175.72 74.3904 179.102 77.7716 179.135 82.4125ZM170.98 77.407C168.295 77.407 166.372 79.1638 165.842 81.5174H175.787C175.488 79.2965 173.665 77.407 170.98 77.407Z" fill="#222331"/>
<path d="M96.9947 68.6895H100.184V91.0244H97.0598L97.0273 88.649C95.628 90.4712 93.5129 91.4475 91.3 91.4475C86.4839 91.4475 83.1974 87.6402 83.1974 83.0518C83.1974 78.4961 86.4839 74.6562 91.3 74.6562C93.5129 74.6562 95.5955 75.5674 96.9947 77.3246V68.6895ZM91.723 88.4537C94.6844 88.4537 97.0598 86.2084 97.0598 83.0518C97.0598 79.9279 94.6844 77.65 91.723 77.65C88.7944 77.65 86.4189 79.9279 86.4189 83.0518C86.4189 86.2084 88.7944 88.4537 91.723 88.4537Z" fill="#222331"/>
<path d="M109.796 74.655C112.009 74.6551 114.124 75.6312 115.523 77.4534L115.556 75.0774H118.68V97.3086H107.169V94.0399H115.491V88.7787C114.092 90.5355 112.009 91.4465 109.796 91.4465C104.98 91.4465 101.693 87.6058 101.693 83.0499C101.694 78.462 104.981 74.655 109.796 74.655ZM110.219 77.649C107.29 77.6493 104.916 79.894 104.916 83.0499C104.916 86.1738 107.29 88.4524 110.219 88.4525C113.18 88.4525 115.556 86.174 115.556 83.0499C115.556 79.8938 113.18 77.649 110.219 77.649Z" fill="#222331"/>
<path d="M103.898 97.3127H22.1178V94.0416H103.898V97.3127Z" fill="#FFF012"/>
<path d="M28.9789 17.6827V48.335H43.0984V55.0096H21.9448V17.6827H28.9789ZM67.652 55.7798C56.459 55.7798 48.5521 47.7188 48.5521 36.3719C48.5521 24.9736 56.459 16.9126 67.652 16.9126C78.8449 16.9126 86.7518 24.9736 86.7518 36.3719C86.7518 47.7188 78.8449 55.7798 67.652 55.7798ZM67.652 49.0538C74.6347 49.0538 79.5637 43.8167 79.5637 36.3719C79.5637 28.927 74.6347 23.6386 67.652 23.6386C60.6692 23.6386 55.7402 28.927 55.7402 36.3719C55.7402 43.8167 60.6692 49.0538 67.652 49.0538ZM110.995 40.12V33.8047H133.586V37.0393C133.535 48.0782 126.809 55.7798 115.102 55.7798C103.961 55.7798 95.8998 46.692 95.8998 36.2178C95.8998 25.2303 104.32 16.9126 115 16.9126C123.574 16.9126 128.349 20.6093 130.3 22.6117L125.987 27.7461C124.19 26.3085 120.853 23.2279 115.205 23.2279C107.76 23.2279 103.191 29.3378 103.191 36.2692C103.191 43.4573 108.376 49.4132 115.359 49.4132C122.804 49.4132 126.398 44.6896 126.552 40.12H110.995ZM161.806 55.7798C150.613 55.7798 142.706 47.7188 142.706 36.3719C142.706 24.9736 150.613 16.9126 161.806 16.9126C172.998 16.9126 180.905 24.9736 180.905 36.3719C180.905 47.7188 172.998 55.7798 161.806 55.7798ZM161.806 49.0538C168.788 49.0538 173.717 43.8167 173.717 36.3719C173.717 28.927 168.788 23.6386 161.806 23.6386C154.823 23.6386 149.894 28.927 149.894 36.3719C149.894 43.8167 154.823 49.0538 161.806 49.0538ZM198.885 17.6827V48.335H213.004V55.0096H191.85V17.6827H198.885ZM255.204 55.0096H247.297L244.832 48.0782H230.456L228.146 55.0096H220.239L233.588 17.6827H241.341L255.204 55.0096ZM242.625 41.5576L237.542 25.6924L232.613 41.5576H242.625ZM281.947 35.1396C286.311 36.1665 289.597 38.4256 289.597 44.0734C289.597 50.8508 284.463 55.0096 277.84 55.0096H265.106V17.6827H276.197C281.485 17.6827 286.876 20.1986 286.876 27.0786C286.876 30.8781 285.13 33.702 281.947 35.1396ZM275.889 23.998H272.14V32.5724H275.94C278.764 32.5724 280.253 30.416 280.253 28.1055C280.253 25.7951 278.764 23.998 275.889 23.998ZM272.14 48.6944H277.48C281.023 48.6944 282.82 46.0245 282.82 43.6627C282.82 41.0955 281.228 38.8877 277.326 38.8877H272.14V48.6944Z" fill="black"/>
</g>
<defs>
<filter id="filter0_f_288_4" x="183.601" y="54.155" width="41.1673" height="41.1673" filterUnits="userSpaceOnUse" color-interpolation-filters="sRGB">
<feFlood flood-opacity="0" result="BackgroundImageFix"/>
<feBlend mode="normal" in="SourceGraphic" in2="BackgroundImageFix" result="shape"/>
<feGaussianBlur stdDeviation="3.67565" result="effect1_foregroundBlur_288_4"/>
</filter>
<filter id="filter1_f_288_4" x="176.997" y="59.0765" width="59.8158" height="59.8158" filterUnits="userSpaceOnUse" color-interpolation-filters="sRGB">
<feFlood flood-opacity="0" result="BackgroundImageFix"/>
<feBlend mode="normal" in="SourceGraphic" in2="BackgroundImageFix" result="shape"/>
<feGaussianBlur stdDeviation="5.34069" result="effect1_foregroundBlur_288_4"/>
</filter>
<filter id="filter2_f_288_4" x="173.311" y="64.4468" width="41.1673" height="41.1673" filterUnits="userSpaceOnUse" color-interpolation-filters="sRGB">
<feFlood flood-opacity="0" result="BackgroundImageFix"/>
<feBlend mode="normal" in="SourceGraphic" in2="BackgroundImageFix" result="shape"/>
<feGaussianBlur stdDeviation="3.67565" result="effect1_foregroundBlur_288_4"/>
</filter>
<filter id="filter3_f_288_4" x="196.835" y="60.7712" width="30.1404" height="30.1404" filterUnits="userSpaceOnUse" color-interpolation-filters="sRGB">
<feFlood flood-opacity="0" result="BackgroundImageFix"/>
<feBlend mode="normal" in="SourceGraphic" in2="BackgroundImageFix" result="shape"/>
<feGaussianBlur stdDeviation="3.67565" result="effect1_foregroundBlur_288_4"/>
</filter>
<filter id="filter4_f_288_4" x="191.689" y="73.2684" width="40.4322" height="40.4322" filterUnits="userSpaceOnUse" color-interpolation-filters="sRGB">
<feFlood flood-opacity="0" result="BackgroundImageFix"/>
<feBlend mode="normal" in="SourceGraphic" in2="BackgroundImageFix" result="shape"/>
<feGaussianBlur stdDeviation="7.35131" result="effect1_foregroundBlur_288_4"/>
</filter>
<filter id="filter5_f_288_4" x="166.316" y="52.6677" width="61.952" height="61.952" filterUnits="userSpaceOnUse" color-interpolation-filters="sRGB">
<feFlood flood-opacity="0" result="BackgroundImageFix"/>
<feBlend mode="normal" in="SourceGraphic" in2="BackgroundImageFix" result="shape"/>
<feGaussianBlur stdDeviation="10.6814" result="effect1_foregroundBlur_288_4"/>
</filter>
<filter id="filter6_f_288_4" x="166.316" y="52.6677" width="61.952" height="61.952" filterUnits="userSpaceOnUse" color-interpolation-filters="sRGB">
<feFlood flood-opacity="0" result="BackgroundImageFix"/>
<feBlend mode="normal" in="SourceGraphic" in2="BackgroundImageFix" result="shape"/>
<feGaussianBlur stdDeviation="10.6814" result="effect1_foregroundBlur_288_4"/>
</filter>
<clipPath id="clip0_288_4">
<rect width="308" height="121" fill="white"/>
</clipPath>
</defs>
</svg>
