<svg width="747" height="233" viewBox="0 0 747 233" fill="none" xmlns="http://www.w3.org/2000/svg">
<rect width="747" height="233" fill="white"/>
<path d="M676.598 102.741C684.21 104.532 689.941 108.473 689.941 118.323C689.941 130.144 680.986 137.397 669.435 137.397H647.226V72.2944H666.569C675.793 72.2944 685.195 76.6824 685.195 88.682C685.195 95.3087 682.151 100.234 676.598 102.741ZM666.032 83.309H659.494V98.2639H666.121C671.046 98.2639 673.643 94.5028 673.643 90.473C673.643 86.4433 671.046 83.309 666.032 83.309ZM659.494 126.382H668.808C674.987 126.382 678.121 121.726 678.121 117.607C678.121 113.129 675.345 109.278 668.539 109.278H659.494V126.382Z" fill="black"/>
<path d="M629.955 137.397H616.164L611.866 125.308H586.792L582.762 137.397H568.972L592.255 72.2944H605.777L629.955 137.397ZM608.015 113.935L599.15 86.2642L590.553 113.935H608.015Z" fill="black"/>
<path d="M531.727 72.2944V125.756H556.353V137.397H519.459V72.2944H531.727Z" fill="black"/>
<path d="M467.057 138.74C447.535 138.74 433.745 124.681 433.745 104.891C433.745 85.0105 447.535 70.9512 467.057 70.9512C486.579 70.9512 500.37 85.0105 500.37 104.891C500.37 124.681 486.579 138.74 467.057 138.74ZM467.057 127.009C479.236 127.009 487.833 117.875 487.833 104.891C487.833 91.9058 479.236 82.6822 467.057 82.6822C454.878 82.6822 446.282 91.9058 446.282 104.891C446.282 117.875 454.878 127.009 467.057 127.009Z" fill="black"/>
<path d="M378.437 111.428V100.413H417.839V106.055C417.749 125.308 406.018 138.74 385.601 138.74C366.169 138.74 352.11 122.89 352.11 104.622C352.11 85.4582 366.796 70.9512 385.422 70.9512C400.377 70.9512 408.705 77.3988 412.108 80.8912L404.586 89.8462C401.451 87.3388 395.631 81.9658 385.78 81.9658C372.796 81.9658 364.826 92.6222 364.826 104.711C364.826 117.248 373.87 127.636 386.049 127.636C399.034 127.636 405.302 119.398 405.571 111.428H378.437Z" fill="black"/>
<path d="M302.842 138.74C283.32 138.74 269.529 124.681 269.529 104.891C269.529 85.0105 283.32 70.9512 302.842 70.9512C322.364 70.9512 336.154 85.0105 336.154 104.891C336.154 124.681 322.364 138.74 302.842 138.74ZM302.842 127.009C315.021 127.009 323.617 117.875 323.617 104.891C323.617 91.9058 315.021 82.6822 302.842 82.6822C290.663 82.6822 282.066 91.9058 282.066 104.891C282.066 117.875 290.663 127.009 302.842 127.009Z" fill="black"/>
<path d="M235.391 72.2944V125.756H260.017V137.397H223.123V72.2944H235.391Z" fill="black"/>
<path d="M642.086 185.5H637.966V156.86H642.086V185.5Z" fill="black"/>
<path d="M629.742 185.5H625.182L623.022 179.5H610.902L608.782 185.5H604.222L614.702 156.86H619.062L629.742 185.5ZM621.662 175.66L616.902 161.78L612.222 175.66H621.662Z" fill="black"/>
<path d="M586.433 185.5H582.153L593.953 157.1H598.273L586.433 185.5Z" fill="black"/>
<path d="M574.438 156.86V160.62H563.758V169.18H573.398V172.94H563.758V181.74H574.438V185.5H559.638V156.86H574.438Z" fill="black"/>
<path d="M534.893 156.86C544.173 156.86 550.453 162.38 550.453 170.82V171.18C550.453 179.58 544.173 185.5 534.973 185.5H528.333V156.86H534.893ZM546.213 171.3V170.82C546.213 165.02 542.213 160.62 535.093 160.62H532.453V181.74H535.093C542.213 181.74 546.213 177.06 546.213 171.3Z" fill="black"/>
<path d="M517.516 185.5H513.396V156.86H517.516V185.5Z" fill="black"/>
<path d="M492.335 186.02C485.055 186.02 481.535 181.5 481.535 175.3V156.86H485.695V174.98C485.695 179.74 488.535 182.14 492.335 182.14C496.095 182.14 498.895 179.74 498.895 174.98V156.86H503.055V175.3C503.055 181.5 499.575 186.02 492.335 186.02Z" fill="black"/>
<path d="M455.545 173.62V169.86H472.865V171.94C472.825 180.02 467.545 186.02 458.865 186.02C450.425 186.02 444.145 179.18 444.145 171.1C444.145 162.78 450.545 156.38 458.785 156.38C465.505 156.38 469.105 159.46 470.385 160.78L467.785 163.86C466.385 162.7 463.585 160.14 458.865 160.14C452.785 160.14 448.385 165.06 448.385 171.14C448.385 177.34 453.105 182.22 459.065 182.22C465.065 182.22 468.585 178.02 468.705 173.62H455.545Z" fill="black"/>
<path d="M421.081 156.86C430.361 156.86 436.641 162.38 436.641 170.82V171.18C436.641 179.58 430.361 185.5 421.161 185.5H414.521V156.86H421.081ZM432.401 171.3V170.82C432.401 165.02 428.401 160.62 421.281 160.62H418.641V181.74H421.281C428.401 181.74 432.401 177.06 432.401 171.3Z" fill="black"/>
<path d="M399.579 178.42V156.86H403.739V185.5H399.579L383.899 163.9V185.5H379.779V156.86H383.899L399.579 178.42Z" fill="black"/>
<path d="M371.75 185.5H367.19L365.03 179.5H352.91L350.79 185.5H346.23L356.71 156.86H361.07L371.75 185.5ZM363.67 175.66L358.91 161.78L354.23 175.66H363.67Z" fill="black"/>
<path d="M340.434 185.5H335.514L328.834 173.58H325.274V185.5H321.154V156.86H329.994C334.754 156.86 339.034 159.5 339.034 165.14C339.034 169.5 336.434 172.18 333.074 173.14L340.434 185.5ZM329.434 160.7H325.274V169.74H329.514C333.234 169.74 334.914 167.74 334.914 165.14C334.914 162.54 333.234 160.7 329.434 160.7Z" fill="black"/>
<path d="M305.979 170.06C309.219 170.74 311.979 172.66 311.979 177.06C311.979 182.06 308.139 185.5 302.819 185.5H294.419V156.86H301.699C305.819 156.86 309.859 158.9 309.859 163.98C309.859 166.86 308.379 169.06 305.979 170.06ZM301.459 160.62H298.539V168.54H301.419C304.259 168.54 305.939 166.82 305.939 164.46C305.939 162.1 304.219 160.62 301.459 160.62ZM298.539 181.74H302.539C306.659 181.74 307.979 178.78 307.979 176.94C307.979 174.42 306.379 172.26 302.139 172.26H298.539V181.74Z" fill="black"/>
<path d="M265.635 156.86H270.235L261.195 173.38V185.5H257.035V173.42L248.155 156.86H252.755L259.115 168.9L265.635 156.86Z" fill="black"/>
<path d="M236.635 170.06C239.875 170.74 242.635 172.66 242.635 177.06C242.635 182.06 238.795 185.5 233.475 185.5H225.075V156.86H232.355C236.475 156.86 240.515 158.9 240.515 163.98C240.515 166.86 239.035 169.06 236.635 170.06ZM232.115 160.62H229.195V168.54H232.075C234.915 168.54 236.595 166.82 236.595 164.46C236.595 162.1 234.875 160.62 232.115 160.62ZM229.195 181.74H233.195C237.315 181.74 238.635 178.78 238.635 176.94C238.635 174.42 237.035 172.26 232.795 172.26H229.195V181.74Z" fill="black"/>
<rect x="14.8016" y="23.1501" width="184.606" height="184.606" rx="92.303" fill="#FFF012"/>
<path d="M87.3637 73.4495V160.694H127.552V179.692H67.3428V73.4495H87.3637Z" fill="black"/>
<path d="M122.921 38.0327V125.277H163.109V144.275H102.9V38.0327H122.921Z" fill="black"/>
</svg>
