<svg width="309" height="106" viewBox="0 0 309 106" fill="none" xmlns="http://www.w3.org/2000/svg">
<g clip-path="url(#clip0_288_4)">
<rect width="309" height="106" fill="white"/>
<g filter="url(#filter0_f_288_4)">
<circle cx="158.956" cy="71.4515" r="9.9452" fill="#FFF012"/>
</g>
<g filter="url(#filter1_f_288_4)">
<circle cx="161.001" cy="82.1584" r="14.4503" fill="#FFF012"/>
</g>
<g filter="url(#filter2_f_288_4)">
<circle cx="151.222" cy="79.1867" r="9.9452" fill="#FDFDD6"/>
</g>
<g filter="url(#filter3_f_288_4)">
<circle cx="164.759" cy="72.2803" r="5.80137" fill="#8CFF9F" fill-opacity="0.85"/>
</g>
<g filter="url(#filter4_f_288_4)">
<circle cx="164.758" cy="85.5406" r="4.14384" fill="#FFA600"/>
</g>
<g filter="url(#filter5_f_288_4)">
<circle cx="153.776" cy="78.1444" r="7.22515" fill="#FFA600"/>
</g>
<g filter="url(#filter6_f_288_4)">
<circle cx="153.776" cy="78.1444" r="7.22515" fill="#FFA600"/>
</g>
<path d="M151.389 69.6443L146.873 86.4208H144.704L149.22 69.6443H151.389ZM154.878 84.3135H152.169L157.102 70.3011H160.235L165.175 84.3135H162.466L158.723 73.1747H158.614L154.878 84.3135ZM154.967 78.8194H162.356V80.8583H154.967V78.8194ZM169.559 70.3011V84.3135H167.021V70.3011H169.559Z" fill="#222331"/>
<path d="M56.1199 71.7078H66.8811V83.692H64.4843V73.9334H58.5166V83.692H56.1199V71.7078Z" fill="#222331"/>
<path d="M52.1215 71.7074H54.4693V83.6915H52.1215L52.097 81.9062C51.0453 83.2757 49.4556 84.0095 47.7924 84.0095C44.1727 84.0095 41.7026 81.148 41.7026 77.6994C41.7026 74.251 44.1727 71.3895 47.7924 71.3895C49.4556 71.3895 51.0209 72.0743 52.0725 73.4194L52.1215 71.7074ZM48.1104 81.7594C50.3361 81.7594 52.1215 80.0719 52.1215 77.6994C52.1215 75.3516 50.3361 73.6395 48.1104 73.6395C45.9093 73.6395 44.1238 75.3516 44.1238 77.6994C44.1238 80.0719 45.9093 81.7594 48.1104 81.7594Z" fill="#222331"/>
<path d="M41.5866 71.7078V73.9334H38.0893V83.692H35.6924V71.7078H41.5866Z" fill="#222331"/>
<path d="M28.7702 71.3896C32.3899 71.3896 34.8845 74.2756 34.8845 77.6995C34.8845 81.1481 32.3899 84.0096 28.7702 84.0096C27.1071 84.0096 25.5418 83.2758 24.4901 81.9063L24.4412 83.6916H22.1178V66.9051H24.5146V73.3951C25.5418 72.0744 27.1071 71.3896 28.7702 71.3896ZM28.4522 81.7595C30.6534 81.7595 32.4388 80.072 32.4388 77.6995C32.4388 75.3517 30.6534 73.6396 28.4522 73.6396C26.2266 73.6396 24.4412 75.3517 24.4412 77.6995C24.4412 80.072 26.2266 81.7595 28.4522 81.7595Z" fill="#222331"/>
<path d="M107.418 83.6918H96.6573V71.7077H99.054V81.4662H105.022V71.7077H107.418V83.6918Z" fill="#222331"/>
<path d="M110.879 70.1579C109.974 70.1579 109.24 69.4242 109.24 68.5193C109.24 67.6143 109.974 66.9051 110.879 66.9051C111.784 66.9051 112.493 67.6143 112.493 68.5193C112.493 69.4242 111.784 70.1579 110.879 70.1579ZM109.681 83.6916V71.7075H112.078V83.6916H109.681Z" fill="#222331"/>
<path d="M123.971 66.9051H126.368V83.6916H124.02L123.996 81.9063C122.944 83.2758 121.354 84.0096 119.691 84.0096C116.071 84.0096 113.601 81.1481 113.601 77.6995C113.601 74.2756 116.071 71.3896 119.691 71.3896C121.354 71.3896 122.919 72.0744 123.971 73.3951V66.9051ZM120.009 81.7595C122.234 81.7595 124.02 80.072 124.02 77.6995C124.02 75.3517 122.234 73.6396 120.009 73.6396C117.808 73.6396 116.022 75.3517 116.022 77.6995C116.022 80.072 117.808 81.7595 120.009 81.7595Z" fill="#222331"/>
<path d="M140.129 77.2191V78.4398H130.088C130.437 80.8316 132.331 81.7534 134.1 81.7534C136.043 81.7534 137.214 80.8815 138.011 80.2087L139.531 81.9278C138.784 82.6005 136.965 84.0456 134.174 84.0456C130.338 84.0456 127.597 81.3797 127.597 77.5928C127.597 73.6562 130.587 71.1897 134.025 71.1897C137.563 71.1897 140.104 73.7311 140.129 77.2191ZM134 73.457C131.982 73.457 130.537 74.7774 130.138 76.5463H137.613C137.388 74.8771 136.018 73.457 134 73.457Z" fill="#222331"/>
<path d="M78.394 66.9051H80.7908V83.6916H78.4429L78.4185 81.9063C77.3667 83.2758 75.7771 84.0096 74.1139 84.0096C70.4942 84.0096 68.0241 81.1481 68.0241 77.6995C68.0241 74.2756 70.4942 71.3896 74.1139 71.3896C75.7771 71.3896 77.3424 72.0744 78.394 73.3951V66.9051ZM74.4318 81.7595C76.6576 81.7595 78.4429 80.072 78.4429 77.6995C78.4429 75.3517 76.6576 73.6396 74.4318 73.6396C72.2308 73.6396 70.4453 75.3517 70.4453 77.6995C70.4453 80.072 72.2308 81.7595 74.4318 81.7595Z" fill="#222331"/>
<path d="M88.0154 71.3887C89.6785 71.3887 91.2682 72.1223 92.3198 73.4918L92.3443 71.7061H94.6925V88.4147H86.0407V85.958H92.2953V82.0037C91.2437 83.3241 89.6783 84.0088 88.0154 84.0088C84.3957 84.0088 81.9254 81.1222 81.9254 77.6981C81.9256 74.2499 84.3959 71.3887 88.0154 71.3887ZM88.3329 73.6388C86.132 73.6391 84.3474 75.3261 84.3472 77.6981C84.3472 80.046 86.1319 81.7585 88.3329 81.7586C90.5586 81.7586 92.3443 80.0461 92.3443 77.6981C92.3441 75.326 90.5583 73.6388 88.3329 73.6388Z" fill="#222331"/>
<path d="M83.582 88.4178H22.1178V85.9593H83.582V88.4178Z" fill="#FFF012"/>
<path d="M28.9789 17.6827V48.335H43.0984V55.0096H21.9448V17.6827H28.9789ZM67.652 55.7798C56.459 55.7798 48.5521 47.7188 48.5521 36.3719C48.5521 24.9736 56.459 16.9126 67.652 16.9126C78.8449 16.9126 86.7518 24.9736 86.7518 36.3719C86.7518 47.7188 78.8449 55.7798 67.652 55.7798ZM67.652 49.0538C74.6347 49.0538 79.5637 43.8167 79.5637 36.3719C79.5637 28.927 74.6347 23.6386 67.652 23.6386C60.6692 23.6386 55.7402 28.927 55.7402 36.3719C55.7402 43.8167 60.6692 49.0538 67.652 49.0538ZM110.995 40.12V33.8047H133.586V37.0393C133.535 48.0782 126.809 55.7798 115.102 55.7798C103.961 55.7798 95.8998 46.692 95.8998 36.2178C95.8998 25.2303 104.32 16.9126 115 16.9126C123.574 16.9126 128.349 20.6093 130.3 22.6117L125.987 27.7461C124.19 26.3085 120.853 23.2279 115.205 23.2279C107.76 23.2279 103.191 29.3378 103.191 36.2692C103.191 43.4573 108.376 49.4132 115.359 49.4132C122.804 49.4132 126.398 44.6896 126.552 40.12H110.995ZM161.806 55.7798C150.613 55.7798 142.706 47.7188 142.706 36.3719C142.706 24.9736 150.613 16.9126 161.806 16.9126C172.998 16.9126 180.905 24.9736 180.905 36.3719C180.905 47.7188 172.998 55.7798 161.806 55.7798ZM161.806 49.0538C168.788 49.0538 173.717 43.8167 173.717 36.3719C173.717 28.927 168.788 23.6386 161.806 23.6386C154.823 23.6386 149.894 28.927 149.894 36.3719C149.894 43.8167 154.823 49.0538 161.806 49.0538ZM198.885 17.6827V48.335H213.004V55.0096H191.85V17.6827H198.885ZM255.204 55.0096H247.297L244.832 48.0782H230.456L228.146 55.0096H220.239L233.588 17.6827H241.341L255.204 55.0096ZM242.625 41.5576L237.542 25.6924L232.613 41.5576H242.625ZM281.947 35.1396C286.311 36.1665 289.597 38.4256 289.597 44.0734C289.597 50.8508 284.463 55.0096 277.84 55.0096H265.106V17.6827H276.197C281.485 17.6827 286.876 20.1986 286.876 27.0786C286.876 30.8781 285.13 33.702 281.947 35.1396ZM275.889 23.998H272.14V32.5724H275.94C278.764 32.5724 280.253 30.416 280.253 28.1055C280.253 25.7951 278.764 23.998 275.889 23.998ZM272.14 48.6944H277.48C281.023 48.6944 282.82 46.0245 282.82 43.6627C282.82 41.0955 281.228 38.8877 277.326 38.8877H272.14V48.6944Z" fill="black"/>
</g>
<defs>
<filter id="filter0_f_288_4" x="143.486" y="55.9812" width="30.9406" height="30.9406" filterUnits="userSpaceOnUse" color-interpolation-filters="sRGB">
<feFlood flood-opacity="0" result="BackgroundImageFix"/>
<feBlend mode="normal" in="SourceGraphic" in2="BackgroundImageFix" result="shape"/>
<feGaussianBlur stdDeviation="2.76256" result="effect1_foregroundBlur_288_4"/>
</filter>
<filter id="filter1_f_288_4" x="138.523" y="59.6801" width="44.9565" height="44.9565" filterUnits="userSpaceOnUse" color-interpolation-filters="sRGB">
<feFlood flood-opacity="0" result="BackgroundImageFix"/>
<feBlend mode="normal" in="SourceGraphic" in2="BackgroundImageFix" result="shape"/>
<feGaussianBlur stdDeviation="4.01397" result="effect1_foregroundBlur_288_4"/>
</filter>
<filter id="filter2_f_288_4" x="135.752" y="63.7163" width="30.9406" height="30.9406" filterUnits="userSpaceOnUse" color-interpolation-filters="sRGB">
<feFlood flood-opacity="0" result="BackgroundImageFix"/>
<feBlend mode="normal" in="SourceGraphic" in2="BackgroundImageFix" result="shape"/>
<feGaussianBlur stdDeviation="2.76256" result="effect1_foregroundBlur_288_4"/>
</filter>
<filter id="filter3_f_288_4" x="153.432" y="60.9538" width="22.653" height="22.653" filterUnits="userSpaceOnUse" color-interpolation-filters="sRGB">
<feFlood flood-opacity="0" result="BackgroundImageFix"/>
<feBlend mode="normal" in="SourceGraphic" in2="BackgroundImageFix" result="shape"/>
<feGaussianBlur stdDeviation="2.76256" result="effect1_foregroundBlur_288_4"/>
</filter>
<filter id="filter4_f_288_4" x="149.564" y="70.3465" width="30.3881" height="30.3881" filterUnits="userSpaceOnUse" color-interpolation-filters="sRGB">
<feFlood flood-opacity="0" result="BackgroundImageFix"/>
<feBlend mode="normal" in="SourceGraphic" in2="BackgroundImageFix" result="shape"/>
<feGaussianBlur stdDeviation="5.52511" result="effect1_foregroundBlur_288_4"/>
</filter>
<filter id="filter5_f_288_4" x="130.495" y="54.8633" width="46.5621" height="46.5621" filterUnits="userSpaceOnUse" color-interpolation-filters="sRGB">
<feFlood flood-opacity="0" result="BackgroundImageFix"/>
<feBlend mode="normal" in="SourceGraphic" in2="BackgroundImageFix" result="shape"/>
<feGaussianBlur stdDeviation="8.02794" result="effect1_foregroundBlur_288_4"/>
</filter>
<filter id="filter6_f_288_4" x="130.495" y="54.8633" width="46.5621" height="46.5621" filterUnits="userSpaceOnUse" color-interpolation-filters="sRGB">
<feFlood flood-opacity="0" result="BackgroundImageFix"/>
<feBlend mode="normal" in="SourceGraphic" in2="BackgroundImageFix" result="shape"/>
<feGaussianBlur stdDeviation="8.02794" result="effect1_foregroundBlur_288_4"/>
</filter>
<clipPath id="clip0_288_4">
<rect width="309" height="106" fill="white"/>
</clipPath>
</defs>
</svg>
